<?xml version="1.0" encoding="UTF-8"?>
<svg version="1.1" xmlns="http://www.w3.org/2000/svg" width="78" height="86">
<path d="M0 0 C1.16163666 -0.0099852 1.16163666 -0.0099852 2.34674072 -0.02017212 C3.98406609 -0.03028212 5.62143252 -0.03498965 7.25878906 -0.03466797 C9.74354482 -0.03902379 12.22649784 -0.07530946 14.7109375 -0.11328125 C16.30728565 -0.11915357 17.90364216 -0.12312018 19.5 -0.125 C20.60042633 -0.14655655 20.60042633 -0.14655655 21.7230835 -0.16854858 C28.0768739 -0.11326755 33.2123407 1.91688715 38.0390625 6.08203125 C38.70808594 6.91927734 38.70808594 6.91927734 39.390625 7.7734375 C39.85210937 8.32902344 40.31359375 8.88460938 40.7890625 9.45703125 C43.88587031 14.20086742 44.28813234 18.20910339 44.265625 23.8359375 C44.27335937 25.76953125 44.27335937 25.76953125 44.28125 27.7421875 C44.015625 31.3359375 44.015625 31.3359375 42.95703125 33.9140625 C40.59052144 40.00217901 43.48390454 48.24079045 45.703125 54.1484375 C47.33068492 58.66574667 47.20262949 61.66705318 46.015625 66.3359375 C43.89550462 69.08820386 42.78815383 70.21407695 39.31640625 70.76171875 C38.33027344 70.72433594 37.34414063 70.68695313 36.328125 70.6484375 C35.27109375 70.60976562 34.2140625 70.57109375 33.125 70.53125 C31.58585937 70.43457031 31.58585937 70.43457031 30.015625 70.3359375 C29.15453125 70.29210937 28.2934375 70.24828125 27.40625 70.203125 C22.70938377 69.84061519 20.0821937 68.77587872 16.015625 66.3359375 C13.84895833 67.00260417 13.84895833 67.00260417 12.015625 68.3359375 C8.20970007 69.60457914 4.60691859 69.55913822 0.640625 69.5859375 C-0.11476563 69.6065625 -0.87015625 69.6271875 -1.6484375 69.6484375 C-6.23616555 69.68051951 -9.31222353 69.38918704 -12.984375 66.3359375 C-14.98885448 63.14984408 -15.24100522 60.6417024 -15.2590332 56.91235352 C-15.26856522 55.82765274 -15.27809723 54.74295197 -15.28791809 53.62538147 C-15.28700668 52.45865402 -15.28609528 51.29192657 -15.28515625 50.08984375 C-15.28944138 48.88657944 -15.2937265 47.68331512 -15.29814148 46.44358826 C-15.30388398 43.89916615 -15.30438564 41.35472763 -15.30004883 38.81030273 C-15.29688995 34.91687011 -15.32034657 31.02419799 -15.34570312 27.13085938 C-15.34797621 24.65885513 -15.34867957 22.18684883 -15.34765625 19.71484375 C-15.36147087 17.96778893 -15.36147087 17.96778893 -15.37556458 16.18544006 C-15.36933578 15.09758713 -15.36310699 14.00973419 -15.35668945 12.88891602 C-15.35731888 11.9350148 -15.3579483 10.98111359 -15.3585968 9.99830627 C-14.82718806 6.21764459 -13.34872424 3.37951868 -10.29589844 1.04443359 C-6.8894667 0.0003414 -3.53045962 0.01059378 0 0 Z " fill="#000001" transform="translate(22.984375,7.6640625)"/>
<path d="M0 0 C17.00445359 -0.86074287 17.00445359 -0.86074287 21.4375 2.25 C25.46373553 6.57083812 26.42368119 8.90212542 26.25390625 14.96875 C25.85798839 18.13609288 24.75756719 20.36364922 23 23 C20.8125 24.375 20.8125 24.375 19 25 C19.92232422 25.98613281 19.92232422 25.98613281 20.86328125 26.9921875 C23.45293681 30.63758929 24.25674194 33.81288039 25.1875 38.125 C25.51358756 39.54443997 25.84038326 40.96371748 26.16796875 42.3828125 C26.44253906 43.57648437 26.71710937 44.77015625 27 46 C27.33 46.99 27.66 47.98 28 49 C26.00045254 49.04254356 23.99958364 49.04080783 22 49 C21.505 48.505 21.505 48.505 21 48 C19.32457024 48.28604898 17.65614657 48.61781233 16 49 C14.53406177 44.69014159 13.0800661 40.39118782 11.875 36 C11.30228815 33.14201061 11.30228815 33.14201061 10 32 C8.31816052 31.76712992 6.6287584 31.58735834 4.9375 31.4375 C4.01839844 31.35371094 3.09929688 31.26992188 2.15234375 31.18359375 C1.08693359 31.09271484 1.08693359 31.09271484 0 31 C0 28.03 0 25.06 0 22 C0.92683594 21.87882812 1.85367187 21.75765625 2.80859375 21.6328125 C4.00613281 21.46523438 5.20367187 21.29765625 6.4375 21.125 C7.63246094 20.96257813 8.82742187 20.80015625 10.05859375 20.6328125 C11.02925781 20.42398438 11.99992187 20.21515625 13 20 C14.38125018 17.23749964 14.19079306 15.05268901 14 12 C11.31907309 9.31907309 9.60832637 9.61329743 5.875 9.375 C4.23144531 9.26285156 4.23144531 9.26285156 2.5546875 9.1484375 C1.71164063 9.09945313 0.86859375 9.05046875 0 9 C0 6.03 0 3.06 0 0 Z " fill="#4DB2F6" transform="translate(30,17)"/>
<path d="M0 0 C3.63 0 7.26 0 11 0 C11 16.17 11 32.34 11 49 C7.37 49 3.74 49 0 49 C0 32.83 0 16.66 0 0 Z " fill="#41ADFB" transform="translate(17,17)"/>
<path d="M0 0 C0.66 0 1.32 0 2 0 C2 2.97 2 5.94 2 9 C3.24716797 8.94779297 3.24716797 8.94779297 4.51953125 8.89453125 C6.14955078 8.85392578 6.14955078 8.85392578 7.8125 8.8125 C8.89144531 8.77769531 9.97039063 8.74289063 11.08203125 8.70703125 C14 9 14 9 15.8671875 10.32421875 C17.61198003 12.90530839 17.31573262 14.96896687 17 18 C15 21 15 21 12 22 C8.7 22 5.4 22 2 22 C1.67 30.91 1.34 39.82 1 49 C0.67 49 0.34 49 0 49 C0 32.83 0 16.66 0 0 Z " fill="#03080C" transform="translate(28,17)"/>
<path d="M0 0 C0.99 0 1.98 0 3 0 C3.12117188 0.73605469 3.24234375 1.47210938 3.3671875 2.23046875 C3.53476562 3.20628906 3.70234375 4.18210937 3.875 5.1875 C4.11863281 6.63189453 4.11863281 6.63189453 4.3671875 8.10546875 C4.98039517 10.91032604 5.85666343 13.37224747 7 16 C5.00045254 16.04254356 2.99958364 16.04080783 1 16 C0.67 15.67 0.34 15.34 0 15 C-1.67542976 15.28604898 -3.34385343 15.61781233 -5 16 C-5.53394179 14.5882217 -6.05165104 13.17029756 -6.5625 11.75 C-6.85253906 10.96109375 -7.14257812 10.1721875 -7.44140625 9.359375 C-8.04522837 6.80896548 -7.8473932 5.44677771 -7 3 C-4.03 3.495 -4.03 3.495 -1 4 C-0.67 2.68 -0.34 1.36 0 0 Z " fill="#208EE6" transform="translate(51,50)"/>
<path d="M0 0 C0 0.66 0 1.32 0 2 C-0.99 2 -1.98 2 -3 2 C-3.185625 2.639375 -3.37125 3.27875 -3.5625 3.9375 C-5 6 -5 6 -8.625 6.75 C-9.73875 6.8325 -10.8525 6.915 -12 7 C-12 4.69 -12 2.38 -12 0 C-10.37585622 -0.19477739 -8.75063577 -0.38059458 -7.125 -0.5625 C-6.22007813 -0.66691406 -5.31515625 -0.77132812 -4.3828125 -0.87890625 C-2 -1 -2 -1 0 0 Z " fill="#3794D6" transform="translate(42,39)"/>
<path d="M0 0 C1.98 0.99 1.98 0.99 4 2 C4.75 4.625 4.75 4.625 5 7 C4.01 7.66 3.02 8.32 2 9 C1.34 6.03 0.68 3.06 0 0 Z " fill="#1E7FCC" transform="translate(43,55)"/>
<path d="M0 0 C2.475 0.495 2.475 0.495 5 1 C5 1.66 5 2.32 5 3 C5.66 3.33 6.32 3.66 7 4 C6.01 4.33 5.02 4.66 4 5 C1.8125 3.6875 1.8125 3.6875 0 2 C0 1.34 0 0.68 0 0 Z " fill="#2A9AF1" transform="translate(43,53)"/>
<path d="M0 0 C0.99 0 1.98 0 3 0 C2.8125 1.875 2.8125 1.875 2 4 C-0.5625 5.25 -0.5625 5.25 -3 6 C-3 5.34 -3 4.68 -3 4 C-2.34 4 -1.68 4 -1 4 C-0.67 2.68 -0.34 1.36 0 0 Z " fill="#2378BA" transform="translate(51,50)"/>
</svg>
